<?xml version="1.0" encoding="utf-8"?>
<!-- Generator: Adobe Illustrator 22.1.0, SVG Export Plug-In . SVG Version: 6.00 Build 0)  -->
<svg version="1.1" id="Layer_1" xmlns="http://www.w3.org/2000/svg" xmlns:xlink="http://www.w3.org/1999/xlink" x="0px" y="0px"
	 viewBox="0 0 48 48" style="enable-background:new 0 0 48 48;" xml:space="preserve">
<style type="text/css">
	.st0{fill:#FFFFFF;}
</style>
<path class="st0" d="M24,37.4c-0.4,0-0.8-0.1-1.2-0.2c-0.4-0.1-0.7-0.4-1.1-0.7L0.8,15.5C0.2,14.9,0,14.1,0,13.2
	c0-1,0.3-1.7,0.9-2.3c0.7-0.7,1.5-1,2.3-0.9c0.8,0.1,1.5,0.4,2.2,1L24,29.6L42.6,11c0.6-0.6,1.3-0.9,2.3-1c1-0.1,1.7,0.2,2.3,1
	c0.7,0.6,1,1.3,0.9,2.2c-0.1,0.9-0.4,1.7-1,2.3L26.2,36.4c-0.4,0.4-0.7,0.6-1.1,0.7C24.8,37.3,24.4,37.4,24,37.4z"/>
</svg>
