<?xml version="1.0" encoding="utf-8"?>
<!-- Generator: Adobe Illustrator 22.1.0, SVG Export Plug-In . SVG Version: 6.00 Build 0)  -->
<svg version="1.1" id="Layer_2_1_" xmlns="http://www.w3.org/2000/svg" xmlns:xlink="http://www.w3.org/1999/xlink" x="0px" y="0px"
	 viewBox="0 0 252.6 41.5" style="enable-background:new 0 0 252.6 41.5;" xml:space="preserve">
<style type="text/css">
	.st0{fill:#FFFFFF;}
</style>
<g id="Layer_1-2">
	<g>
		<path class="st0" d="M143.4,39.9c-1.8-0.8-3.3-2-4.4-3.4c-1.1-1.4-1.7-3.1-1.7-4.9h6.3c0.1,1.2,0.7,2.3,1.8,3.1
			c1.1,0.8,2.5,1.3,4.1,1.3s3.1-0.3,4-1s1.4-1.5,1.4-2.6c0-1.1-0.5-1.9-1.6-2.5s-2.7-1.1-5-1.8c-2.2-0.6-4-1.2-5.4-1.8
			c-1.4-0.6-2.6-1.4-3.6-2.6s-1.5-2.7-1.5-4.7c0-1.6,0.5-3,1.4-4.3c0.9-1.3,2.3-2.3,4-3.1c1.7-0.8,3.7-1.1,6-1.1
			c3.4,0,6.1,0.8,8.1,2.6c2.1,1.7,3.2,4,3.3,6.9h-6.1c-0.1-1.3-0.6-2.4-1.6-3.2s-2.3-1.2-3.9-1.2c-1.6,0-2.8,0.3-3.7,0.9
			s-1.3,1.4-1.3,2.4c0,0.8,0.3,1.4,0.9,2c0.6,0.5,1.3,1,2.1,1.3c0.8,0.3,2,0.7,3.6,1.2c2.2,0.6,3.9,1.2,5.3,1.7
			c1.4,0.6,2.6,1.5,3.6,2.6c1,1.1,1.5,2.7,1.6,4.6c0,1.7-0.5,3.2-1.4,4.5c-0.9,1.3-2.3,2.4-3.9,3.1c-1.7,0.8-3.7,1.1-6,1.1
			C147.3,41.1,145.2,40.7,143.4,39.9L143.4,39.9z"/>
		<path class="st0" d="M80.5,3.8v5h-9.9V41h-6.1V8.8h-10v-5C54.6,3.8,80.5,3.8,80.5,3.8z"/>
		<path class="st0" d="M79.2,18.2c1.2-2.3,2.9-4.1,5-5.3c2.1-1.3,4.5-1.9,7.1-1.9c2.3,0,4.3,0.5,6.1,1.4s3.1,2,4.2,3.4v-4.3h6.2V41
			h-6.2v-4.4c-1,1.4-2.5,2.6-4.2,3.5c-1.8,0.9-3.8,1.4-6.1,1.4c-2.5,0-4.9-0.6-7-2c-2.1-1.3-3.8-3.1-5-5.5c-1.2-2.3-1.8-5-1.8-8
			S78,20.5,79.2,18.2L79.2,18.2z M100.2,20.9c-0.8-1.5-1.9-2.6-3.3-3.4c-1.4-0.8-2.8-1.2-4.4-1.2s-3,0.4-4.4,1.2
			c-1.4,0.8-2.5,1.9-3.3,3.4c-0.8,1.5-1.3,3.2-1.3,5.3s0.4,3.8,1.3,5.4c0.8,1.5,1.9,2.7,3.3,3.5c1.4,0.8,2.8,1.2,4.4,1.2
			c1.5,0,3-0.4,4.4-1.2c1.4-0.8,2.5-1.9,3.3-3.5c0.8-1.5,1.3-3.3,1.3-5.3S101.1,22.4,100.2,20.9L100.2,20.9z"/>
		<path class="st0" d="M115.1,6c-0.6-0.6-1-1.4-1-2.4s0.3-1.7,1-2.4s1.4-1,2.4-1c0.9,0,1.7,0.3,2.3,1s1,1.4,1,2.4s-0.3,1.7-1,2.4
			s-1.4,1-2.3,1C116.5,7,115.7,6.7,115.1,6z"/>
		<rect x="114.4" y="11.5" class="st0" width="6.1" height="29.5"/>
		<path class="st0" d="M133.3,1.4V41h-6.1V1.4H133.3z"/>
		<path class="st0" d="M171,1.4V41h-6.1V1.4H171z"/>
		<path class="st0" d="M178.5,6c-0.6-0.6-1-1.4-1-2.4s0.3-1.7,1-2.4s1.4-1,2.4-1s1.7,0.3,2.3,1s1,1.4,1,2.4s-0.3,1.7-1,2.4
			s-1.4,1-2.3,1S179.1,6.7,178.5,6z"/>
		<rect x="177.7" y="11.5" class="st0" width="6.1" height="29.5"/>
		<path class="st0" d="M190.3,18.2c1.2-2.3,2.9-4.1,5-5.3c2.1-1.3,4.5-1.9,7.1-1.9c1.9,0,3.8,0.4,5.7,1.3c1.9,0.8,3.4,2,4.5,3.3V1.4
			h6.2V41h-6.2v-4.4c-1,1.4-2.4,2.6-4.1,3.5c-1.8,0.9-3.8,1.4-6.1,1.4c-2.6,0-4.9-0.6-7.1-2c-2.1-1.3-3.8-3.1-5-5.5
			c-1.2-2.3-1.9-5-1.9-8S189.1,20.5,190.3,18.2L190.3,18.2z M211.4,20.9c-0.8-1.5-1.9-2.6-3.3-3.4c-1.4-0.8-2.8-1.2-4.4-1.2
			s-3,0.4-4.4,1.2c-1.4,0.8-2.5,1.9-3.3,3.4c-0.8,1.5-1.3,3.2-1.3,5.3s0.4,3.8,1.3,5.4c0.8,1.5,1.9,2.7,3.3,3.5s2.8,1.2,4.4,1.2
			s3-0.4,4.4-1.2c1.4-0.8,2.5-1.9,3.3-3.5c0.8-1.5,1.3-3.3,1.3-5.3S212.2,22.4,211.4,20.9L211.4,20.9z"/>
		<path class="st0" d="M252.4,28.5h-22.6c0.2,2.4,1.1,4.2,2.6,5.7c1.6,1.4,3.5,2.1,5.8,2.1c3.3,0,5.6-1.4,7-4.1h6.6
			c-0.9,2.7-2.5,4.9-4.9,6.7s-5.2,2.6-8.7,2.6c-2.8,0-5.4-0.6-7.6-1.9c-2.2-1.3-4-3.1-5.3-5.4s-1.9-5-1.9-8s0.6-5.7,1.9-8
			c1.2-2.3,3-4.1,5.2-5.3c2.2-1.3,4.8-1.9,7.7-1.9s5.3,0.6,7.4,1.8s3.9,2.9,5.1,5.1c1.2,2.2,1.8,4.7,1.8,7.6
			C252.6,26.6,252.5,27.6,252.4,28.5L252.4,28.5z M246.2,23.6c0-2.3-0.8-4.1-2.4-5.4c-1.6-1.4-3.5-2-5.8-2c-2.1,0-3.9,0.7-5.4,2
			c-1.5,1.3-2.4,3.2-2.7,5.4C229.9,23.6,246.2,23.6,246.2,23.6z"/>
	</g>
	<g id="LINE">
		<path class="st0" d="M40.1,9.3v16.3c0,6.3-2.9,12-7.5,15.6c-2.5,0.5-5,0-7.2-1.3l-4.2-2.6l0.6-3.3c0.3-1.5,0.4-3.1,0.4-4.6v-4
			l11.4,5.3v-1.9c0-1.2-0.5-2.3-1.4-3.1l-10-8.4v-3.3c0-1.5-0.6-3-1.7-4l-0.5-0.5l-0.5,0.5c-1.1,1.1-1.7,2.5-1.7,4v3.3l-10,8.4
			c-0.9,0.8-1.4,1.9-1.4,3.1v1.9l11.4-5.3v4c0,1.5,0.1,3.1,0.4,4.6l0.6,3.3L14.7,40c-2.2,1.3-4.7,1.8-7.2,1.3C2.9,37.6,0,32,0,25.6
			V9.3c0-1.5,1.2-2.7,2.7-2.7c5.8,0,11.3-2.1,15.6-6c1-0.9,2.6-0.9,3.6,0c4.3,3.9,9.8,6,15.6,6C39,6.7,40.1,7.9,40.1,9.3z"/>
	</g>
</g>
</svg>
